<svg width="275" height="39" viewBox="0 0 275 39" fill="none" xmlns="http://www.w3.org/2000/svg">
<path d="M0.208281 29V0.999998H10.4883C12.7283 0.999998 14.5683 1.38667 16.0083 2.16C17.4749 2.90667 18.5683 3.93333 19.2883 5.24C20.0083 6.52 20.3683 7.94667 20.3683 9.52C20.3683 11.2267 19.9149 12.7867 19.0083 14.2C18.1283 15.6133 16.7416 16.64 14.8483 17.28L20.6483 29H14.7683L9.56828 17.96H5.32828V29H0.208281ZM5.32828 14.2H10.1683C11.8749 14.2 13.1283 13.7867 13.9283 12.96C14.7283 12.1333 15.1283 11.04 15.1283 9.68C15.1283 8.34667 14.7283 7.28 13.9283 6.48C13.1549 5.68 11.8883 5.28 10.1283 5.28H5.32828V14.2ZM33.4392 29.48C31.4392 29.48 29.6659 29.0533 28.1192 28.2C26.5726 27.3467 25.3592 26.1467 24.4792 24.6C23.5992 23.0533 23.1592 21.2667 23.1592 19.24C23.1592 17.1867 23.5859 15.36 24.4392 13.76C25.3192 12.16 26.5192 10.92 28.0392 10.04C29.5859 9.13333 31.3992 8.68 33.4792 8.68C35.4259 8.68 37.1459 9.10667 38.6392 9.96C40.1326 10.8133 41.2926 11.9867 42.1192 13.48C42.9726 14.9467 43.3992 16.5867 43.3992 18.4C43.3992 18.6933 43.3859 19 43.3592 19.32C43.3592 19.64 43.3459 19.9733 43.3192 20.32H28.2392C28.3459 21.8667 28.8792 23.08 29.8392 23.96C30.8259 24.84 32.0126 25.28 33.3992 25.28C34.4392 25.28 35.3059 25.0533 35.9992 24.6C36.7192 24.12 37.2526 23.5067 37.5992 22.76H42.7992C42.4259 24.0133 41.7992 25.16 40.9192 26.2C40.0659 27.2133 38.9992 28.0133 37.7192 28.6C36.4659 29.1867 35.0392 29.48 33.4392 29.48ZM33.4792 12.84C32.2259 12.84 31.1192 13.2 30.1592 13.92C29.1992 14.6133 28.5859 15.68 28.3192 17.12H38.1992C38.1192 15.8133 37.6392 14.7733 36.7592 14C35.8792 13.2267 34.7859 12.84 33.4792 12.84ZM57.3455 29.48C55.3455 29.48 53.5721 29.0533 52.0255 28.2C50.4788 27.3467 49.2655 26.1467 48.3855 24.6C47.5055 23.0533 47.0655 21.2667 47.0655 19.24C47.0655 17.1867 47.4921 15.36 48.3455 13.76C49.2255 12.16 50.4255 10.92 51.9455 10.04C53.4921 9.13333 55.3055 8.68 57.3855 8.68C59.3321 8.68 61.0521 9.10667 62.5455 9.96C64.0388 10.8133 65.1988 11.9867 66.0255 13.48C66.8788 14.9467 67.3055 16.5867 67.3055 18.4C67.3055 18.6933 67.2921 19 67.2655 19.32C67.2655 19.64 67.2521 19.9733 67.2255 20.32H52.1455C52.2521 21.8667 52.7855 23.08 53.7455 23.96C54.7321 24.84 55.9188 25.28 57.3055 25.28C58.3455 25.28 59.2121 25.0533 59.9055 24.6C60.6255 24.12 61.1588 23.5067 61.5055 22.76H66.7055C66.3321 24.0133 65.7055 25.16 64.8255 26.2C63.9721 27.2133 62.9055 28.0133 61.6255 28.6C60.3721 29.1867 58.9455 29.48 57.3455 29.48ZM57.3855 12.84C56.1321 12.84 55.0255 13.2 54.0655 13.92C53.1055 14.6133 52.4921 15.68 52.2255 17.12H62.1055C62.0255 15.8133 61.5455 14.7733 60.6655 14C59.7855 13.2267 58.6921 12.84 57.3855 12.84ZM71.6117 29V0.199999H76.7317V29H71.6117ZM82.0833 29V0.999998H92.3633C94.6033 0.999998 96.4433 1.38667 97.8833 2.16C99.3499 2.90667 100.443 3.93333 101.163 5.24C101.883 6.52 102.243 7.94667 102.243 9.52C102.243 11.2267 101.79 12.7867 100.883 14.2C100.003 15.6133 98.6166 16.64 96.7233 17.28L102.523 29H96.6433L91.4433 17.96H87.2033V29H82.0833ZM87.2033 14.2H92.0433C93.7499 14.2 95.0033 13.7867 95.8033 12.96C96.6033 12.1333 97.0033 11.04 97.0033 9.68C97.0033 8.34667 96.6033 7.28 95.8033 6.48C95.0299 5.68 93.7633 5.28 92.0033 5.28H87.2033V14.2ZM112.983 29.48C111.276 29.48 109.876 29.2133 108.783 28.68C107.69 28.12 106.876 27.3867 106.343 26.48C105.81 25.5733 105.543 24.5733 105.543 23.48C105.543 21.64 106.263 20.1467 107.703 19C109.143 17.8533 111.303 17.28 114.183 17.28H119.223V16.8C119.223 15.44 118.836 14.44 118.063 13.8C117.29 13.16 116.33 12.84 115.183 12.84C114.143 12.84 113.236 13.0933 112.463 13.6C111.69 14.08 111.21 14.8 111.023 15.76H106.023C106.156 14.32 106.636 13.0667 107.463 12C108.316 10.9333 109.41 10.12 110.743 9.56C112.076 8.97333 113.57 8.68 115.223 8.68C118.05 8.68 120.276 9.38667 121.903 10.8C123.53 12.2133 124.343 14.2133 124.343 16.8V29H119.983L119.503 25.8C118.916 26.8667 118.09 27.7467 117.023 28.44C115.983 29.1333 114.636 29.48 112.983 29.48ZM114.143 25.48C115.61 25.48 116.743 25 117.543 24.04C118.37 23.08 118.89 21.8933 119.103 20.48H114.743C113.383 20.48 112.41 20.7333 111.823 21.24C111.236 21.72 110.943 22.32 110.943 23.04C110.943 23.8133 111.236 24.4133 111.823 24.84C112.41 25.2667 113.183 25.48 114.143 25.48ZM137.795 29C135.715 29 134.049 28.4933 132.795 27.48C131.542 26.4667 130.915 24.6667 130.915 22.08V13.44H127.515V9.16H130.915L131.515 3.84H136.035V9.16H141.395V13.44H136.035V22.12C136.035 23.08 136.235 23.7467 136.635 24.12C137.062 24.4667 137.782 24.64 138.795 24.64H141.275V29H137.795ZM148.551 6.08C147.618 6.08 146.845 5.8 146.231 5.24C145.645 4.68 145.351 3.97333 145.351 3.12C145.351 2.26667 145.645 1.57333 146.231 1.04C146.845 0.479998 147.618 0.199999 148.551 0.199999C149.485 0.199999 150.245 0.479998 150.831 1.04C151.445 1.57333 151.751 2.26667 151.751 3.12C151.751 3.97333 151.445 4.68 150.831 5.24C150.245 5.8 149.485 6.08 148.551 6.08ZM145.991 29V9.16H151.111V29H145.991ZM156.455 29V9.16H160.975L161.375 12.52C161.989 11.3467 162.869 10.4133 164.015 9.72C165.189 9.02667 166.562 8.68 168.135 8.68C170.589 8.68 172.495 9.45333 173.855 11C175.215 12.5467 175.895 14.8133 175.895 17.8V29H170.775V18.28C170.775 16.5733 170.429 15.2667 169.735 14.36C169.042 13.4533 167.962 13 166.495 13C165.055 13 163.869 13.5067 162.935 14.52C162.029 15.5333 161.575 16.9467 161.575 18.76V29H156.455ZM189.191 23.08C188.231 23.08 187.338 22.9733 186.511 22.76L185.031 24.24C185.485 24.48 186.098 24.68 186.871 24.84C187.645 25 188.898 25.16 190.631 25.32C193.271 25.56 195.191 26.1867 196.391 27.2C197.591 28.2133 198.191 29.6133 198.191 31.4C198.191 32.5733 197.871 33.68 197.231 34.72C196.591 35.7867 195.605 36.64 194.271 37.28C192.938 37.9467 191.231 38.28 189.151 38.28C186.325 38.28 184.045 37.7467 182.311 36.68C180.578 35.64 179.711 34.0667 179.711 31.96C179.711 30.1733 180.578 28.6267 182.311 27.32C181.778 27.08 181.311 26.8267 180.911 26.56C180.538 26.2933 180.205 26.0133 179.911 25.72V24.8L183.391 21.12C181.845 19.76 181.071 18.0133 181.071 15.88C181.071 14.5467 181.391 13.3333 182.031 12.24C182.698 11.1467 183.631 10.28 184.831 9.64C186.031 9 187.485 8.68 189.191 8.68C190.311 8.68 191.351 8.84 192.311 9.16H199.831V12.28L196.431 12.52C196.965 13.5333 197.231 14.6533 197.231 15.88C197.231 17.2133 196.911 18.4267 196.271 19.52C195.631 20.6133 194.698 21.48 193.471 22.12C192.271 22.76 190.845 23.08 189.191 23.08ZM189.191 19.16C190.231 19.16 191.085 18.88 191.751 18.32C192.445 17.76 192.791 16.96 192.791 15.92C192.791 14.88 192.445 14.08 191.751 13.52C191.085 12.96 190.231 12.68 189.191 12.68C188.098 12.68 187.218 12.96 186.551 13.52C185.885 14.08 185.551 14.88 185.551 15.92C185.551 16.96 185.885 17.76 186.551 18.32C187.218 18.88 188.098 19.16 189.191 19.16ZM184.391 31.44C184.391 32.4267 184.845 33.16 185.751 33.64C186.685 34.1467 187.818 34.4 189.151 34.4C190.431 34.4 191.471 34.1333 192.271 33.6C193.071 33.0933 193.471 32.4 193.471 31.52C193.471 30.8 193.205 30.2 192.671 29.72C192.165 29.24 191.138 28.9467 189.591 28.84C188.498 28.76 187.485 28.64 186.551 28.48C185.778 28.9067 185.218 29.3733 184.871 29.88C184.551 30.3867 184.391 30.9067 184.391 31.44ZM211.765 29.48C210.005 29.48 208.458 29.2 207.125 28.64C205.792 28.0533 204.725 27.2533 203.925 26.24C203.125 25.2267 202.645 24.0533 202.485 22.72H207.645C207.805 23.4933 208.232 24.16 208.925 24.72C209.645 25.2533 210.565 25.52 211.685 25.52C212.805 25.52 213.618 25.2933 214.125 24.84C214.658 24.3867 214.925 23.8667 214.925 23.28C214.925 22.4267 214.552 21.8533 213.805 21.56C213.058 21.24 212.018 20.9333 210.685 20.64C209.832 20.4533 208.965 20.2267 208.085 19.96C207.205 19.6933 206.392 19.36 205.645 18.96C204.925 18.5333 204.338 18 203.885 17.36C203.432 16.6933 203.205 15.88 203.205 14.92C203.205 13.16 203.898 11.68 205.285 10.48C206.698 9.28 208.672 8.68 211.205 8.68C213.552 8.68 215.418 9.22667 216.805 10.32C218.218 11.4133 219.058 12.92 219.325 14.84H214.485C214.192 13.3733 213.085 12.64 211.165 12.64C210.205 12.64 209.458 12.8267 208.925 13.2C208.418 13.5733 208.165 14.04 208.165 14.6C208.165 15.1867 208.552 15.6533 209.325 16C210.098 16.3467 211.125 16.6667 212.405 16.96C213.792 17.28 215.058 17.64 216.205 18.04C217.378 18.4133 218.312 18.9867 219.005 19.76C219.698 20.5067 220.045 21.5867 220.045 23C220.072 24.2267 219.752 25.3333 219.085 26.32C218.418 27.3067 217.458 28.08 216.205 28.64C214.952 29.2 213.472 29.48 211.765 29.48ZM224.7 29V0.999998H234.26C237.54 0.999998 240.234 1.58667 242.34 2.76C244.474 3.90667 246.047 5.53333 247.06 7.64C248.1 9.72 248.62 12.1733 248.62 15C248.62 17.8267 248.1 20.2933 247.06 22.4C246.047 24.48 244.474 26.1067 242.34 27.28C240.234 28.4267 237.54 29 234.26 29H224.7ZM229.82 24.6H234.02C236.367 24.6 238.22 24.2267 239.58 23.48C240.94 22.7067 241.914 21.6133 242.5 20.2C243.087 18.76 243.38 17.0267 243.38 15C243.38 13 243.087 11.28 242.5 9.84C241.914 8.4 240.94 7.29333 239.58 6.52C238.22 5.74667 236.367 5.36 234.02 5.36H229.82V24.6ZM264.778 29.48C263.285 29.48 261.978 29.2 260.858 28.64C259.738 28.08 258.831 27.2933 258.138 26.28L257.578 29H253.018V0.199999H258.138V12C258.778 11.12 259.618 10.3467 260.658 9.68C261.725 9.01333 263.098 8.68 264.778 8.68C266.645 8.68 268.311 9.13333 269.778 10.04C271.245 10.9467 272.405 12.1867 273.258 13.76C274.111 15.3333 274.538 17.12 274.538 19.12C274.538 21.12 274.111 22.9067 273.258 24.48C272.405 26.0267 271.245 27.2533 269.778 28.16C268.311 29.04 266.645 29.48 264.778 29.48ZM263.698 25C265.325 25 266.671 24.4533 267.738 23.36C268.805 22.2667 269.338 20.8533 269.338 19.12C269.338 17.3867 268.805 15.96 267.738 14.84C266.671 13.72 265.325 13.16 263.698 13.16C262.045 13.16 260.685 13.72 259.618 14.84C258.578 15.9333 258.058 17.3467 258.058 19.08C258.058 20.8133 258.578 22.24 259.618 23.36C260.685 24.4533 262.045 25 263.698 25Z" fill="#FAAD00"/>
<path d="M0.208281 29H-0.291719V29.5H0.208281V29ZM0.208281 0.999998V0.499998H-0.291719V0.999998H0.208281ZM16.0083 2.16L15.7717 2.6006L15.7814 2.60558L16.0083 2.16ZM19.2883 5.24L18.8503 5.48131L18.8525 5.48513L19.2883 5.24ZM19.0083 14.2L18.5874 13.93L18.5838 13.9357L19.0083 14.2ZM14.8483 17.28L14.6882 16.8063L14.1466 16.9894L14.4002 17.5018L14.8483 17.28ZM20.6483 29V29.5H21.4536L21.0964 28.7782L20.6483 29ZM14.7683 29L14.3159 29.2131L14.4511 29.5H14.7683V29ZM9.56828 17.96L10.0206 17.7469L9.88546 17.46H9.56828V17.96ZM5.32828 17.96V17.46H4.82828V17.96H5.32828ZM5.32828 29V29.5H5.82828V29H5.32828ZM5.32828 14.2H4.82828V14.7H5.32828V14.2ZM13.9283 12.96L13.569 12.6123L13.569 12.6123L13.9283 12.96ZM13.9283 6.48L13.5687 6.82756L13.5747 6.83355L13.9283 6.48ZM5.32828 5.28V4.78H4.82828V5.28H5.32828ZM0.708281 29V0.999998H-0.291719V29H0.708281ZM0.208281 1.5H10.4883V0.499998H0.208281V1.5ZM10.4883 1.5C12.6748 1.5 14.4264 1.878 15.7717 2.6005L16.2448 1.7195C14.7102 0.895331 12.7817 0.499998 10.4883 0.499998V1.5ZM15.7814 2.60558C17.1685 3.31171 18.1836 4.27131 18.8504 5.4813L19.7262 4.9987C18.9529 3.59536 17.7814 2.50162 16.2351 1.71442L15.7814 2.60558ZM18.8525 5.48513C19.5274 6.68497 19.8683 8.02621 19.8683 9.52H20.8683C20.8683 7.86712 20.4892 6.35503 19.7241 4.99487L18.8525 5.48513ZM19.8683 9.52C19.8683 11.1326 19.4415 12.5986 18.5874 13.93L19.4291 14.47C20.3884 12.9747 20.8683 11.3207 20.8683 9.52H19.8683ZM18.5838 13.9357C17.7767 15.232 16.4947 16.1957 14.6882 16.8063L15.0084 17.7537C16.9886 17.0843 18.4799 15.9946 19.4327 14.4643L18.5838 13.9357ZM14.4002 17.5018L20.2002 29.2218L21.0964 28.7782L15.2964 17.0582L14.4002 17.5018ZM20.6483 28.5H14.7683V29.5H20.6483V28.5ZM15.2206 28.7869L10.0206 17.7469L9.11595 18.1731L14.3159 29.2131L15.2206 28.7869ZM9.56828 17.46H5.32828V18.46H9.56828V17.46ZM4.82828 17.96V29H5.82828V17.96H4.82828ZM5.32828 28.5H0.208281V29.5H5.32828V28.5ZM5.32828 14.7H10.1683V13.7H5.32828V14.7ZM10.1683 14.7C11.9451 14.7 13.356 14.2703 14.2876 13.3077L13.569 12.6123C12.9006 13.303 11.8048 13.7 10.1683 13.7V14.7ZM14.2876 13.3077C15.194 12.3711 15.6283 11.1445 15.6283 9.68H14.6283C14.6283 10.9355 14.2626 11.8956 13.569 12.6123L14.2876 13.3077ZM15.6283 9.68C15.6283 8.23954 15.1922 7.03681 14.2818 6.12645L13.5747 6.83355C14.2644 7.52318 14.6283 8.45379 14.6283 9.68H15.6283ZM14.2878 6.13249C13.3777 5.19106 11.9472 4.78 10.1283 4.78V5.78C11.8294 5.78 12.9322 6.16894 13.5688 6.82751L14.2878 6.13249ZM10.1283 4.78H5.32828V5.78H10.1283V4.78ZM4.82828 5.28V14.2H5.82828V5.28H4.82828ZM28.1192 28.2L28.3608 27.7622L28.3608 27.7622L28.1192 28.2ZM24.4392 13.76L24.0011 13.519L23.998 13.5247L24.4392 13.76ZM28.0392 10.04L28.2897 10.4727L28.2921 10.4713L28.0392 10.04ZM38.6392 9.96L38.3912 10.3941L38.3912 10.3941L38.6392 9.96ZM42.1192 13.48L41.6817 13.7222L41.687 13.7314L42.1192 13.48ZM43.3592 19.32L42.8609 19.2785L42.8592 19.2992V19.32H43.3592ZM43.3192 20.32V20.82H43.7822L43.8177 20.3583L43.3192 20.32ZM28.2392 20.32V19.82H27.7035L27.7404 20.3544L28.2392 20.32ZM29.8392 23.96L29.5013 24.3286L29.5064 24.3331L29.8392 23.96ZM35.9992 24.6L36.2729 25.0185L36.2766 25.016L35.9992 24.6ZM37.5992 22.76V22.26H37.2801L37.1457 22.5494L37.5992 22.76ZM42.7992 22.76L43.2784 22.9027L43.4699 22.26H42.7992V22.76ZM40.9192 26.2L40.5375 25.877L40.5368 25.8779L40.9192 26.2ZM37.7192 28.6L37.5109 28.1455L37.5072 28.1472L37.7192 28.6ZM30.1592 13.92L30.452 14.3254L30.4592 14.32L30.1592 13.92ZM28.3192 17.12L27.8276 17.029L27.7181 17.62H28.3192V17.12ZM38.1992 17.12V17.62H38.7308L38.6983 17.0894L38.1992 17.12ZM36.7592 14L37.0893 13.6244L37.0893 13.6244L36.7592 14ZM33.4392 28.98C31.5124 28.98 29.8241 28.5696 28.3608 27.7622L27.8777 28.6378C29.5076 29.5371 31.3661 29.98 33.4392 29.98V28.98ZM28.3608 27.7622C26.8954 26.9537 25.7486 25.8199 24.9138 24.3527L24.0446 24.8473C24.9698 26.4734 26.2497 27.7396 27.8777 28.6378L28.3608 27.7622ZM24.9138 24.3527C24.0823 22.8914 23.6592 21.1922 23.6592 19.24H22.6592C22.6592 21.3411 23.1161 23.2153 24.0446 24.8473L24.9138 24.3527ZM23.6592 19.24C23.6592 17.2577 24.0705 15.5138 24.8804 13.9953L23.998 13.5247C23.1012 15.2062 22.6592 17.1156 22.6592 19.24H23.6592ZM24.8773 14.001C25.7153 12.4775 26.8518 11.3052 28.2897 10.4727L27.7887 9.60729C26.1867 10.5348 24.9232 11.8425 24.0011 13.519L24.8773 14.001ZM28.2921 10.4713C29.7505 9.61641 31.4737 9.18 33.4792 9.18V8.18C31.3247 8.18 29.4213 8.65026 27.7864 9.60865L28.2921 10.4713ZM33.4792 9.18C35.3505 9.18 36.9829 9.5894 38.3912 10.3941L38.8873 9.52588C37.3089 8.62393 35.5012 8.18 33.4792 8.18V9.18ZM38.3912 10.3941C39.8056 11.2024 40.8998 12.3096 41.6818 13.7222L42.5567 13.2378C41.6853 11.6637 40.4595 10.4243 38.8873 9.52588L38.3912 10.3941ZM41.687 13.7314C42.4929 15.1165 42.8992 16.6687 42.8992 18.4H43.8992C43.8992 16.5046 43.4522 14.7768 42.5514 13.2286L41.687 13.7314ZM42.8992 18.4C42.8992 18.6782 42.8866 18.971 42.8609 19.2785L43.8575 19.3615C43.8852 19.029 43.8992 18.7084 43.8992 18.4H42.8992ZM42.8592 19.32C42.8592 19.6262 42.8465 19.9467 42.8207 20.2817L43.8177 20.3583C43.8453 20 43.8592 19.6538 43.8592 19.32H42.8592ZM43.3192 19.82H28.2392V20.82H43.3192V19.82ZM27.7404 20.3544C27.8541 22.003 28.4293 23.3458 29.5014 24.3286L30.1771 23.5914C29.3292 22.8142 28.8377 21.7303 28.738 20.2856L27.7404 20.3544ZM29.5064 24.3331C30.5895 25.2991 31.8964 25.78 33.3992 25.78V24.78C32.1287 24.78 31.0623 24.3809 30.172 23.5869L29.5064 24.3331ZM33.3992 25.78C34.5116 25.78 35.4796 25.5371 36.2728 25.0185L35.7256 24.1815C35.1321 24.5695 34.3668 24.78 33.3992 24.78V25.78ZM36.2766 25.016C37.069 24.4878 37.6653 23.805 38.0527 22.9706L37.1457 22.5494C36.8398 23.2084 36.3695 23.7522 35.7219 24.184L36.2766 25.016ZM37.5992 23.26H42.7992V22.26H37.5992V23.26ZM42.32 22.6173C41.9672 23.8017 41.3748 24.8875 40.5375 25.877L41.3009 26.523C42.2236 25.4325 42.8845 24.225 43.2784 22.9027L42.32 22.6173ZM40.5368 25.8779C39.7339 26.8313 38.7281 27.5876 37.5109 28.1455L37.9275 29.0545C39.2703 28.4391 40.3978 27.5954 41.3017 26.5221L40.5368 25.8779ZM37.5072 28.1472C36.3299 28.6983 34.9774 28.98 33.4392 28.98V29.98C35.1011 29.98 36.6019 29.6751 37.9312 29.0528L37.5072 28.1472ZM33.4792 12.34C32.1228 12.34 30.9098 12.7321 29.8592 13.52L30.4592 14.32C31.3286 13.6679 32.3289 13.34 33.4792 13.34V12.34ZM29.8665 13.5147C28.7789 14.3002 28.1118 15.494 27.8276 17.029L28.8109 17.211C29.0599 15.866 29.6196 14.9265 30.452 14.3253L29.8665 13.5147ZM28.3192 17.62H38.1992V16.62H28.3192V17.62ZM38.6983 17.0894C38.6112 15.6669 38.0815 14.4964 37.0893 13.6244L36.4292 14.3756C37.197 15.0503 37.6272 15.9597 37.7002 17.1506L38.6983 17.0894ZM37.0893 13.6244C36.1073 12.7615 34.8923 12.34 33.4792 12.34V13.34C34.6794 13.34 35.6511 13.6918 36.4292 14.3756L37.0893 13.6244ZM52.0255 28.2L52.267 27.7622L52.267 27.7622L52.0255 28.2ZM48.3455 13.76L47.9073 13.519L47.9043 13.5247L48.3455 13.76ZM51.9455 10.04L52.196 10.4727L52.1983 10.4713L51.9455 10.04ZM62.5455 9.96L62.2974 10.3941L62.2974 10.3941L62.5455 9.96ZM66.0255 13.48L65.5879 13.7222L65.5933 13.7314L66.0255 13.48ZM67.2655 19.32L66.7672 19.2785L66.7655 19.2992V19.32H67.2655ZM67.2255 20.32V20.82H67.6885L67.724 20.3583L67.2255 20.32ZM52.1455 20.32V19.82H51.6098L51.6467 20.3544L52.1455 20.32ZM53.7455 23.96L53.4076 24.3286L53.4127 24.3331L53.7455 23.96ZM59.9055 24.6L60.1791 25.0185L60.1828 25.016L59.9055 24.6ZM61.5055 22.76V22.26H61.1864L61.052 22.5494L61.5055 22.76ZM66.7055 22.76L67.1847 22.9027L67.3761 22.26H66.7055V22.76ZM64.8255 26.2L64.4438 25.877L64.443 25.8779L64.8255 26.2ZM61.6255 28.6L61.4171 28.1455L61.4135 28.1472L61.6255 28.6ZM54.0655 13.92L54.3583 14.3254L54.3655 14.32L54.0655 13.92ZM52.2255 17.12L51.7338 17.029L51.6244 17.62H52.2255V17.12ZM62.1055 17.12V17.62H62.637L62.6045 17.0894L62.1055 17.12ZM60.6655 14L60.9955 13.6244L60.9955 13.6244L60.6655 14ZM57.3455 28.98C55.4186 28.98 53.7304 28.5696 52.267 27.7622L51.7839 28.6378C53.4139 29.5371 55.2723 29.98 57.3455 29.98V28.98ZM52.267 27.7622C50.8016 26.9537 49.6548 25.8199 48.8201 24.3527L47.9509 24.8473C48.8761 26.4734 50.156 27.7396 51.7839 28.6378L52.267 27.7622ZM48.8201 24.3527C47.9886 22.8914 47.5655 21.1922 47.5655 19.24H46.5655C46.5655 21.3411 47.0223 23.2153 47.9509 24.8473L48.8201 24.3527ZM47.5655 19.24C47.5655 17.2577 47.9768 15.5138 48.7866 13.9953L47.9043 13.5247C47.0075 15.2062 46.5655 17.1156 46.5655 19.24H47.5655ZM48.7836 14.001C49.6215 12.4775 50.758 11.3052 52.196 10.4727L51.695 9.60729C50.0929 10.5348 48.8294 11.8425 47.9074 13.519L48.7836 14.001ZM52.1983 10.4713C53.6568 9.61641 55.3799 9.18 57.3855 9.18V8.18C55.231 8.18 53.3275 8.65026 51.6926 9.60865L52.1983 10.4713ZM57.3855 9.18C59.2568 9.18 60.8891 9.5894 62.2974 10.3941L62.7935 9.52588C61.2151 8.62393 59.4075 8.18 57.3855 8.18V9.18ZM62.2974 10.3941C63.7119 11.2024 64.8061 12.3096 65.588 13.7222L66.4629 13.2378C65.5915 11.6637 64.3657 10.4243 62.7935 9.52588L62.2974 10.3941ZM65.5933 13.7314C66.3991 15.1165 66.8055 16.6687 66.8055 18.4H67.8055C67.8055 16.5046 67.3585 14.7768 66.4576 13.2286L65.5933 13.7314ZM66.8055 18.4C66.8055 18.6782 66.7928 18.971 66.7672 19.2785L67.7637 19.3615C67.7915 19.029 67.8055 18.7084 67.8055 18.4H66.8055ZM66.7655 19.32C66.7655 19.6262 66.7527 19.9467 66.7269 20.2817L67.724 20.3583C67.7516 20 67.7655 19.6538 67.7655 19.32H66.7655ZM67.2255 19.82H52.1455V20.82H67.2255V19.82ZM51.6467 20.3544C51.7604 22.003 52.3355 23.3458 53.4076 24.3286L54.0833 23.5914C53.2354 22.8142 52.7439 21.7303 52.6443 20.2856L51.6467 20.3544ZM53.4127 24.3331C54.4957 25.2991 55.8026 25.78 57.3055 25.78V24.78C56.035 24.78 54.9686 24.3809 54.0783 23.5869L53.4127 24.3331ZM57.3055 25.78C58.4179 25.78 59.3859 25.5371 60.1791 25.0185L59.6318 24.1815C59.0384 24.5695 58.2731 24.78 57.3055 24.78V25.78ZM60.1828 25.016C60.9752 24.4878 61.5716 23.805 61.959 22.9706L61.052 22.5494C60.746 23.2084 60.2757 23.7522 59.6281 24.184L60.1828 25.016ZM61.5055 23.26H66.7055V22.26H61.5055V23.26ZM66.2263 22.6173C65.8735 23.8017 65.2811 24.8875 64.4438 25.877L65.2072 26.523C66.1299 25.4325 66.7908 24.225 67.1847 22.9027L66.2263 22.6173ZM64.443 25.8779C63.6402 26.8313 62.6343 27.5876 61.4171 28.1455L61.8338 29.0545C63.1766 28.4391 64.3041 27.5954 65.2079 26.5221L64.443 25.8779ZM61.4135 28.1472C60.2361 28.6983 58.8836 28.98 57.3455 28.98V29.98C59.0073 29.98 60.5082 29.6751 61.8374 29.0528L61.4135 28.1472ZM57.3855 12.34C56.0291 12.34 54.816 12.7321 53.7655 13.52L54.3655 14.32C55.2349 13.6679 56.2352 13.34 57.3855 13.34V12.34ZM53.7727 13.5147C52.6851 14.3002 52.0181 15.494 51.7338 17.029L52.7171 17.211C52.9662 15.866 53.5258 14.9265 54.3582 14.3253L53.7727 13.5147ZM52.2255 17.62H62.1055V16.62H52.2255V17.62ZM62.6045 17.0894C62.5174 15.6669 61.9877 14.4964 60.9955 13.6244L60.3354 14.3756C61.1032 15.0503 61.5335 15.9597 61.6064 17.1506L62.6045 17.0894ZM60.9955 13.6244C60.0136 12.7615 58.7986 12.34 57.3855 12.34V13.34C58.5857 13.34 59.5574 13.6918 60.3354 14.3756L60.9955 13.6244ZM71.6117 29H71.1117V29.5H71.6117V29ZM71.6117 0.199999V-0.300001H71.1117V0.199999H71.6117ZM76.7317 0.199999H77.2317V-0.300001H76.7317V0.199999ZM76.7317 29V29.5H77.2317V29H76.7317ZM72.1117 29V0.199999H71.1117V29H72.1117ZM71.6117 0.699999H76.7317V-0.300001H71.6117V0.699999ZM76.2317 0.199999V29H77.2317V0.199999H76.2317ZM76.7317 28.5H71.6117V29.5H76.7317V28.5ZM82.0833 29H81.5833V29.5H82.0833V29ZM82.0833 0.999998V0.499998H81.5833V0.999998H82.0833ZM97.8833 2.16L97.6467 2.6006L97.6564 2.60558L97.8833 2.16ZM101.163 5.24L100.725 5.48131L100.727 5.48513L101.163 5.24ZM100.883 14.2L100.462 13.93L100.459 13.9357L100.883 14.2ZM96.7233 17.28L96.5632 16.8063L96.0216 16.9894L96.2752 17.5018L96.7233 17.28ZM102.523 29V29.5H103.329L102.971 28.7782L102.523 29ZM96.6433 29L96.1909 29.2131L96.3261 29.5H96.6433V29ZM91.4433 17.96L91.8956 17.7469L91.7605 17.46H91.4433V17.96ZM87.2033 17.96V17.46H86.7033V17.96H87.2033ZM87.2033 29V29.5H87.7033V29H87.2033ZM87.2033 14.2H86.7033V14.7H87.2033V14.2ZM95.8033 12.96L95.444 12.6123L95.444 12.6123L95.8033 12.96ZM95.8033 6.48L95.4437 6.82756L95.4497 6.83355L95.8033 6.48ZM87.2033 5.28V4.78H86.7033V5.28H87.2033ZM82.5833 29V0.999998H81.5833V29H82.5833ZM82.0833 1.5H92.3633V0.499998H82.0833V1.5ZM92.3633 1.5C94.5498 1.5 96.3014 1.878 97.6467 2.6005L98.1198 1.7195C96.5852 0.895331 94.6567 0.499998 92.3633 0.499998V1.5ZM97.6564 2.60558C99.0435 3.31171 100.059 4.27131 100.725 5.4813L101.601 4.9987C100.828 3.59536 99.6564 2.50162 98.1101 1.71442L97.6564 2.60558ZM100.727 5.48513C101.402 6.68497 101.743 8.02621 101.743 9.52H102.743C102.743 7.86712 102.364 6.35503 101.599 4.99487L100.727 5.48513ZM101.743 9.52C101.743 11.1326 101.317 12.5986 100.462 13.93L101.304 14.47C102.263 12.9747 102.743 11.3207 102.743 9.52H101.743ZM100.459 13.9357C99.6517 15.232 98.3697 16.1957 96.5632 16.8063L96.8834 17.7537C98.8636 17.0843 100.355 15.9946 101.308 14.4643L100.459 13.9357ZM96.2752 17.5018L102.075 29.2218L102.971 28.7782L97.1714 17.0582L96.2752 17.5018ZM102.523 28.5H96.6433V29.5H102.523V28.5ZM97.0956 28.7869L91.8956 17.7469L90.9909 18.1731L96.1909 29.2131L97.0956 28.7869ZM91.4433 17.46H87.2033V18.46H91.4433V17.46ZM86.7033 17.96V29H87.7033V17.96H86.7033ZM87.2033 28.5H82.0833V29.5H87.2033V28.5ZM87.2033 14.7H92.0433V13.7H87.2033V14.7ZM92.0433 14.7C93.8201 14.7 95.231 14.2703 96.1626 13.3077L95.444 12.6123C94.7756 13.303 93.6798 13.7 92.0433 13.7V14.7ZM96.1626 13.3077C97.069 12.3711 97.5033 11.1445 97.5033 9.68H96.5033C96.5033 10.9355 96.1376 11.8956 95.444 12.6123L96.1626 13.3077ZM97.5033 9.68C97.5033 8.23954 97.0672 7.03681 96.1568 6.12645L95.4497 6.83355C96.1394 7.52318 96.5033 8.45379 96.5033 9.68H97.5033ZM96.1628 6.13249C95.2527 5.19106 93.8222 4.78 92.0033 4.78V5.78C93.7044 5.78 94.8072 6.16894 95.4438 6.82751L96.1628 6.13249ZM92.0033 4.78H87.2033V5.78H92.0033V4.78ZM86.7033 5.28V14.2H87.7033V5.28H86.7033ZM108.783 28.68L108.555 29.1251L108.564 29.1294L108.783 28.68ZM106.343 26.48L105.912 26.7335L105.912 26.7335L106.343 26.48ZM107.703 19L108.014 19.3911L108.014 19.3911L107.703 19ZM119.223 17.28V17.78H119.723V17.28H119.223ZM118.063 13.8L118.382 13.4148L118.382 13.4148L118.063 13.8ZM112.463 13.6L112.727 14.0249L112.737 14.0182L112.463 13.6ZM111.023 15.76V16.26H111.435L111.514 15.8554L111.023 15.76ZM106.023 15.76L105.525 15.7139L105.475 16.26H106.023V15.76ZM107.463 12L107.072 11.6876L107.068 11.6937L107.463 12ZM110.743 9.56L110.937 10.0211L110.944 10.0177L110.743 9.56ZM121.903 10.8L121.575 11.1774L121.575 11.1774L121.903 10.8ZM124.343 29V29.5H124.843V29H124.343ZM119.983 29L119.489 29.0742L119.552 29.5H119.983V29ZM119.503 25.8L119.997 25.7258L119.778 24.2625L119.065 25.559L119.503 25.8ZM117.023 28.44L116.75 28.0207L116.746 28.024L117.023 28.44ZM117.543 24.04L117.164 23.7137L117.159 23.7199L117.543 24.04ZM119.103 20.48L119.597 20.5546L119.684 19.98H119.103V20.48ZM111.823 21.24L112.14 21.6271L112.15 21.6184L111.823 21.24ZM111.823 24.84L112.117 24.4356L112.117 24.4356L111.823 24.84ZM112.983 28.98C111.324 28.98 110.005 28.72 109.002 28.2306L108.564 29.1294C109.747 29.7067 111.229 29.98 112.983 29.98V28.98ZM109.011 28.235C107.988 27.7109 107.252 27.0384 106.774 26.2265L105.912 26.7335C106.501 27.7349 107.392 28.5291 108.555 29.125L109.011 28.235ZM106.774 26.2265C106.288 25.3998 106.043 24.4879 106.043 23.48H105.043C105.043 24.6588 105.332 25.7469 105.912 26.7335L106.774 26.2265ZM106.043 23.48C106.043 21.7924 106.694 20.443 108.014 19.3911L107.392 18.6089C105.832 19.8503 105.043 21.4876 105.043 23.48H106.043ZM108.014 19.3911C109.328 18.345 111.356 17.78 114.183 17.78V16.78C111.25 16.78 108.958 17.3617 107.392 18.6089L108.014 19.3911ZM114.183 17.78H119.223V16.78H114.183V17.78ZM119.723 17.28V16.8H118.723V17.28H119.723ZM119.723 16.8C119.723 15.347 119.307 14.1805 118.382 13.4148L117.744 14.1852C118.366 14.6995 118.723 15.533 118.723 16.8H119.723ZM118.382 13.4148C117.506 12.6902 116.429 12.34 115.183 12.34V13.34C116.231 13.34 117.073 13.6298 117.744 14.1852L118.382 13.4148ZM115.183 12.34C114.058 12.34 113.054 12.6153 112.189 13.1818L112.737 14.0182C113.419 13.5714 114.228 13.34 115.183 13.34V12.34ZM112.199 13.1752C111.298 13.7345 110.743 14.5793 110.532 15.6646L111.514 15.8554C111.676 15.0207 112.081 14.4255 112.727 14.0248L112.199 13.1752ZM111.023 15.26H106.023V16.26H111.023V15.26ZM106.521 15.8061C106.646 14.4537 107.094 13.2923 107.858 12.3063L107.068 11.6937C106.179 12.841 105.667 14.1863 105.525 15.7139L106.521 15.8061ZM107.853 12.3123C108.651 11.3147 109.676 10.5506 110.937 10.021L110.549 9.09901C109.144 9.68938 107.981 10.5519 107.073 11.6877L107.853 12.3123ZM110.944 10.0177C112.206 9.46245 113.63 9.18 115.223 9.18V8.18C113.51 8.18 111.946 8.48422 110.542 9.10234L110.944 10.0177ZM115.223 9.18C117.967 9.18 120.065 9.86505 121.575 11.1774L122.231 10.4226C120.488 8.90828 118.132 8.18 115.223 8.18V9.18ZM121.575 11.1774C123.071 12.4768 123.843 14.3264 123.843 16.8H124.843C124.843 14.1003 123.989 11.9499 122.231 10.4226L121.575 11.1774ZM123.843 16.8V29H124.843V16.8H123.843ZM124.343 28.5H119.983V29.5H124.343V28.5ZM120.477 28.9258L119.997 25.7258L119.009 25.8742L119.489 29.0742L120.477 28.9258ZM119.065 25.559C118.52 26.5503 117.751 27.3702 116.75 28.0208L117.295 28.8592C118.428 28.1231 119.313 27.1831 119.941 26.041L119.065 25.559ZM116.746 28.024C115.81 28.6474 114.569 28.98 112.983 28.98V29.98C114.704 29.98 116.156 29.6192 117.3 28.856L116.746 28.024ZM114.143 25.98C115.729 25.98 117.015 25.4544 117.927 24.3601L117.159 23.7199C116.471 24.5456 115.49 24.98 114.143 24.98V25.98ZM117.922 24.3663C118.818 23.3261 119.372 22.0488 119.597 20.5546L118.609 20.4054C118.407 21.7379 117.922 22.8339 117.164 23.7137L117.922 24.3663ZM119.103 19.98H114.743V20.98H119.103V19.98ZM114.743 19.98C113.345 19.98 112.221 20.2358 111.496 20.8616L112.15 21.6184C112.599 21.2309 113.421 20.98 114.743 20.98V19.98ZM111.506 20.853C110.811 21.4222 110.443 22.1612 110.443 23.04H111.443C111.443 22.4788 111.662 22.0178 112.14 21.627L111.506 20.853ZM110.443 23.04C110.443 23.9609 110.803 24.7166 111.529 25.2444L112.117 24.4356C111.669 24.1101 111.443 23.6657 111.443 23.04H110.443ZM111.529 25.2444C112.225 25.7505 113.111 25.98 114.143 25.98V24.98C113.255 24.98 112.594 24.7828 112.117 24.4356L111.529 25.2444ZM132.795 27.48L133.11 27.0912L133.11 27.0912L132.795 27.48ZM130.915 13.44H131.415V12.94H130.915V13.44ZM127.515 13.44H127.015V13.94H127.515V13.44ZM127.515 9.16V8.66H127.015V9.16H127.515ZM130.915 9.16V9.66H131.362L131.412 9.21603L130.915 9.16ZM131.515 3.84V3.34H131.069L131.019 3.78396L131.515 3.84ZM136.035 3.84H136.535V3.34H136.035V3.84ZM136.035 9.16H135.535V9.66H136.035V9.16ZM141.395 9.16H141.895V8.66H141.395V9.16ZM141.395 13.44V13.94H141.895V13.44H141.395ZM136.035 13.44V12.94H135.535V13.44H136.035ZM136.635 24.12L136.294 24.4855L136.307 24.4972L136.32 24.5081L136.635 24.12ZM141.275 24.64H141.775V24.14H141.275V24.64ZM141.275 29V29.5H141.775V29H141.275ZM137.795 28.5C135.796 28.5 134.251 28.0139 133.11 27.0912L132.481 27.8688C133.847 28.9728 135.635 29.5 137.795 29.5V28.5ZM133.11 27.0912C132.03 26.218 131.415 24.6065 131.415 22.08H130.415C130.415 24.7268 131.054 26.7153 132.481 27.8688L133.11 27.0912ZM131.415 22.08V13.44H130.415V22.08H131.415ZM130.915 12.94H127.515V13.94H130.915V12.94ZM128.015 13.44V9.16H127.015V13.44H128.015ZM127.515 9.66H130.915V8.66H127.515V9.66ZM131.412 9.21603L132.012 3.89604L131.019 3.78396L130.419 9.10396L131.412 9.21603ZM131.515 4.34H136.035V3.34H131.515V4.34ZM135.535 3.84V9.16H136.535V3.84H135.535ZM136.035 9.66H141.395V8.66H136.035V9.66ZM140.895 9.16V13.44H141.895V9.16H140.895ZM141.395 12.94H136.035V13.94H141.395V12.94ZM135.535 13.44V22.12H136.535V13.44H135.535ZM135.535 22.12C135.535 23.1209 135.739 23.967 136.294 24.4855L136.977 23.7545C136.732 23.5263 136.535 23.0391 136.535 22.12H135.535ZM136.32 24.5081C136.885 24.9669 137.752 25.14 138.795 25.14V24.14C137.812 24.14 137.239 23.9664 136.951 23.7319L136.32 24.5081ZM138.795 25.14H141.275V24.14H138.795V25.14ZM140.775 24.64V29H141.775V24.64H140.775ZM141.275 28.5H137.795V29.5H141.275V28.5ZM146.231 5.24L145.886 5.60177L145.894 5.60924L146.231 5.24ZM146.231 1.04L146.568 1.40997L146.569 1.40924L146.231 1.04ZM150.831 1.04L150.486 1.40168L150.495 1.40969L150.503 1.4173L150.831 1.04ZM150.831 5.24L150.494 4.87066L150.486 4.87832L150.831 5.24ZM145.991 29H145.491V29.5H145.991V29ZM145.991 9.16V8.66H145.491V9.16H145.991ZM151.111 9.16H151.611V8.66H151.111V9.16ZM151.111 29V29.5H151.611V29H151.111ZM148.551 5.58C147.726 5.58 147.078 5.33606 146.569 4.87076L145.894 5.60924C146.611 6.26394 147.51 6.58 148.551 6.58V5.58ZM146.577 4.87832C146.094 4.41804 145.851 3.84468 145.851 3.12H144.851C144.851 4.10199 145.195 4.94195 145.886 5.60168L146.577 4.87832ZM145.851 3.12C145.851 2.39548 146.094 1.84072 146.568 1.40997L145.895 0.670028C145.196 1.30595 144.851 2.13786 144.851 3.12H145.851ZM146.569 1.40924C147.078 0.943939 147.726 0.699999 148.551 0.699999V-0.300001C147.51 -0.300001 146.611 0.0160581 145.894 0.670755L146.569 1.40924ZM148.551 0.699999C149.377 0.699999 150.007 0.943897 150.486 1.40168L151.177 0.67832C150.483 0.0161 149.592 -0.300001 148.551 -0.300001V0.699999ZM150.503 1.4173C151.001 1.85041 151.251 2.40316 151.251 3.12H152.251C152.251 2.13017 151.888 1.29626 151.159 0.662695L150.503 1.4173ZM151.251 3.12C151.251 3.83722 151.001 4.4084 150.494 4.87076L151.169 5.60924C151.889 4.95159 152.251 4.10945 152.251 3.12H151.251ZM150.486 4.87832C150.007 5.3361 149.377 5.58 148.551 5.58V6.58C149.592 6.58 150.483 6.2639 151.177 5.60168L150.486 4.87832ZM146.491 29V9.16H145.491V29H146.491ZM145.991 9.66H151.111V8.66H145.991V9.66ZM150.611 9.16V29H151.611V9.16H150.611ZM151.111 28.5H145.991V29.5H151.111V28.5ZM156.455 29H155.955V29.5H156.455V29ZM156.455 9.16V8.66H155.955V9.16H156.455ZM160.975 9.16L161.472 9.10089L161.419 8.66H160.975V9.16ZM161.375 12.52L160.879 12.5791L161.07 14.1837L161.819 12.7516L161.375 12.52ZM164.015 9.72L163.761 9.28951L163.757 9.29213L164.015 9.72ZM173.855 11L173.48 11.3302L173.48 11.3302L173.855 11ZM175.895 29V29.5H176.395V29H175.895ZM170.775 29H170.275V29.5H170.775V29ZM169.735 14.36L170.133 14.0563L170.133 14.0563L169.735 14.36ZM162.935 14.52L162.568 14.1812L162.563 14.1866L162.935 14.52ZM161.575 29V29.5H162.075V29H161.575ZM156.955 29V9.16H155.955V29H156.955ZM156.455 9.66H160.975V8.66H156.455V9.66ZM160.479 9.21911L160.879 12.5791L161.872 12.4609L161.472 9.10089L160.479 9.21911ZM161.819 12.7516C162.389 11.6604 163.205 10.7945 164.274 10.1479L163.757 9.29213C162.533 10.0322 161.589 11.033 160.932 12.2884L161.819 12.7516ZM164.27 10.1505C165.355 9.50929 166.638 9.18 168.135 9.18V8.18C166.487 8.18 165.023 8.54404 163.761 9.28954L164.27 10.1505ZM168.135 9.18C170.475 9.18 172.233 9.91218 173.48 11.3302L174.231 10.6698C172.758 8.99448 170.702 8.18 168.135 8.18V9.18ZM173.48 11.3302C174.73 12.752 175.395 14.8811 175.395 17.8H176.395C176.395 14.7456 175.701 12.3414 174.231 10.6698L173.48 11.3302ZM175.395 17.8V29H176.395V17.8H175.395ZM175.895 28.5H170.775V29.5H175.895V28.5ZM171.275 29V18.28H170.275V29H171.275ZM171.275 18.28C171.275 16.5154 170.918 15.0839 170.133 14.0563L169.338 14.6637C169.939 15.4494 170.275 16.6313 170.275 18.28H171.275ZM170.133 14.0563C169.319 12.9918 168.069 12.5 166.495 12.5V13.5C167.855 13.5 168.766 13.9148 169.338 14.6637L170.133 14.0563ZM166.495 12.5C164.923 12.5 163.6 13.06 162.568 14.1813L163.303 14.8587C164.137 13.9533 165.188 13.5 166.495 13.5V12.5ZM162.563 14.1866C161.55 15.3185 161.075 16.8653 161.075 18.76H162.075C162.075 17.028 162.508 15.7481 163.308 14.8534L162.563 14.1866ZM161.075 18.76V29H162.075V18.76H161.075ZM161.575 28.5H156.455V29.5H161.575V28.5ZM186.511 22.76L186.636 22.2759L186.36 22.2045L186.158 22.4064L186.511 22.76ZM185.031 24.24L184.678 23.8864L184.199 24.3651L184.797 24.6819L185.031 24.24ZM186.871 24.84L186.77 25.3296L186.77 25.3296L186.871 24.84ZM190.631 25.32L190.585 25.8179L190.586 25.8179L190.631 25.32ZM196.391 27.2L196.069 27.582L196.391 27.2ZM197.231 34.72L196.806 34.4579L196.803 34.4628L197.231 34.72ZM194.271 37.28L194.055 36.8292L194.048 36.8328L194.271 37.28ZM182.311 36.68L182.573 36.2541L182.569 36.2513L182.311 36.68ZM182.311 27.32L182.612 27.7193L183.287 27.2107L182.517 26.864L182.311 27.32ZM180.911 26.56L180.621 26.9669L180.627 26.9716L180.634 26.976L180.911 26.56ZM179.911 25.72H179.411V25.9271L179.558 26.0736L179.911 25.72ZM179.911 24.8L179.548 24.4565L179.411 24.601V24.8H179.911ZM183.391 21.12L183.755 21.4635L184.111 21.0869L183.722 20.7445L183.391 21.12ZM182.031 12.24L181.604 11.9797L181.6 11.9874L182.031 12.24ZM184.831 9.64L184.596 9.19882L184.596 9.19882L184.831 9.64ZM192.311 9.16L192.153 9.63434L192.23 9.66H192.311V9.16ZM199.831 9.16H200.331V8.66H199.831V9.16ZM199.831 12.28L199.867 12.7788L200.331 12.7459V12.28H199.831ZM196.431 12.52L196.396 12.0212L195.632 12.0752L195.989 12.7529L196.431 12.52ZM196.271 19.52L195.84 19.2674L196.271 19.52ZM193.471 22.12L193.24 21.6767L193.236 21.6788L193.471 22.12ZM191.751 18.32L191.437 17.931L191.43 17.9371L191.751 18.32ZM191.751 13.52L191.43 13.9029L191.437 13.909L191.751 13.52ZM186.551 13.52L186.23 13.1371L186.23 13.1371L186.551 13.52ZM186.551 18.32L186.873 17.9371L186.873 17.9371L186.551 18.32ZM185.751 33.64L185.99 33.2005L185.985 33.1981L185.751 33.64ZM192.271 33.6L192.004 33.1775L191.994 33.184L192.271 33.6ZM192.671 29.72L192.327 30.0831L192.337 30.0916L192.671 29.72ZM189.591 28.84L189.555 29.3387L189.557 29.3388L189.591 28.84ZM186.551 28.48L186.636 27.9872L186.463 27.9576L186.31 28.0422L186.551 28.48ZM184.871 29.88L184.459 29.5977L184.454 29.6052L184.449 29.613L184.871 29.88ZM189.191 22.58C188.268 22.58 187.418 22.4775 186.636 22.2759L186.386 23.2441C187.259 23.4692 188.194 23.58 189.191 23.58V22.58ZM186.158 22.4064L184.678 23.8864L185.385 24.5936L186.865 23.1136L186.158 22.4064ZM184.797 24.6819C185.309 24.9525 185.973 25.1646 186.77 25.3296L186.973 24.3504C186.224 24.1954 185.661 24.0075 185.265 23.7981L184.797 24.6819ZM186.77 25.3296C187.573 25.4957 188.85 25.6577 190.585 25.8179L190.677 24.8221C188.946 24.6623 187.717 24.5043 186.973 24.3504L186.77 25.3296ZM190.586 25.8179C193.187 26.0544 194.985 26.6665 196.069 27.582L196.714 26.818C195.398 25.7069 193.356 25.0656 190.677 24.8221L190.586 25.8179ZM196.069 27.582C197.14 28.4866 197.691 29.7379 197.691 31.4H198.691C198.691 29.4887 198.043 27.94 196.714 26.818L196.069 27.582ZM197.691 31.4C197.691 32.4769 197.399 33.4934 196.806 34.458L197.657 34.982C198.344 33.8666 198.691 32.6697 198.691 31.4H197.691ZM196.803 34.4628C196.222 35.4307 195.317 36.2234 194.055 36.8292L194.488 37.7308C195.892 37.0566 196.961 36.1426 197.66 34.9772L196.803 34.4628ZM194.048 36.8328C192.806 37.4538 191.183 37.78 189.151 37.78V38.78C191.28 38.78 193.07 38.4395 194.495 37.7272L194.048 36.8328ZM189.151 37.78C186.383 37.78 184.203 37.257 182.573 36.2542L182.049 37.1058C183.886 38.2363 186.267 38.78 189.151 38.78V37.78ZM182.569 36.2513C180.994 35.3062 180.211 33.9001 180.211 31.96H179.211C179.211 34.2332 180.163 35.9738 182.054 37.1087L182.569 36.2513ZM180.211 31.96C180.211 30.3645 180.974 28.9542 182.612 27.7193L182.01 26.9207C180.182 28.2992 179.211 29.9821 179.211 31.96H180.211ZM182.517 26.864C182.003 26.633 181.562 26.3925 181.189 26.144L180.634 26.976C181.061 27.2608 181.553 27.527 182.106 27.776L182.517 26.864ZM181.202 26.1531C180.849 25.9008 180.537 25.6384 180.265 25.3664L179.558 26.0736C179.873 26.3883 180.227 26.6859 180.621 26.9669L181.202 26.1531ZM180.411 25.72V24.8H179.411V25.72H180.411ZM180.275 25.1435L183.755 21.4635L183.028 20.7765L179.548 24.4565L180.275 25.1435ZM183.722 20.7445C182.287 19.4833 181.571 17.8755 181.571 15.88H180.571C180.571 18.1512 181.402 20.0367 183.061 21.4955L183.722 20.7445ZM181.571 15.88C181.571 14.6306 181.87 13.5052 182.463 12.4926L181.6 11.9874C180.913 13.1614 180.571 14.4627 180.571 15.88H181.571ZM182.458 12.5003C183.076 11.4881 183.941 10.6818 185.067 10.0812L184.596 9.19882C183.322 9.87819 182.321 10.8052 181.605 11.9797L182.458 12.5003ZM185.067 10.0812C186.178 9.48842 187.546 9.18 189.191 9.18V8.18C187.423 8.18 185.885 8.51158 184.596 9.19882L185.067 10.0812ZM189.191 9.18C190.263 9.18 191.249 9.33305 192.153 9.63434L192.47 8.68566C191.453 8.34695 190.359 8.18 189.191 8.18V9.18ZM192.311 9.66H199.831V8.66H192.311V9.66ZM199.331 9.16V12.28H200.331V9.16H199.331ZM199.796 11.7812L196.396 12.0212L196.467 13.0188L199.867 12.7788L199.796 11.7812ZM195.989 12.7529C196.482 13.6893 196.731 14.7285 196.731 15.88H197.731C197.731 14.5781 197.448 13.3773 196.874 12.2871L195.989 12.7529ZM196.731 15.88C196.731 17.1294 196.433 18.2548 195.84 19.2674L196.703 19.7726C197.39 18.5986 197.731 17.2973 197.731 15.88H196.731ZM195.84 19.2674C195.252 20.2722 194.391 21.076 193.24 21.6767L193.703 22.5633C195.005 21.884 196.011 20.9545 196.703 19.7726L195.84 19.2674ZM193.236 21.6788C192.123 22.2727 190.78 22.58 189.191 22.58V23.58C190.909 23.58 192.42 23.2473 193.707 22.5612L193.236 21.6788ZM189.191 19.66C190.325 19.66 191.3 19.3526 192.073 18.7029L191.43 17.9371C190.87 18.4074 190.138 18.66 189.191 18.66V19.66ZM192.066 18.709C192.897 18.0376 193.291 17.0829 193.291 15.92H192.291C192.291 16.8371 191.993 17.4824 191.437 17.931L192.066 18.709ZM193.291 15.92C193.291 14.7571 192.897 13.8024 192.066 13.131L191.437 13.909C191.993 14.3576 192.291 15.0029 192.291 15.92H193.291ZM192.073 13.1371C191.3 12.4874 190.325 12.18 189.191 12.18V13.18C190.138 13.18 190.87 13.4326 191.43 13.9029L192.073 13.1371ZM189.191 12.18C188.011 12.18 187.008 12.4837 186.23 13.1371L186.873 13.9029C187.428 13.4363 188.185 13.18 189.191 13.18V12.18ZM186.23 13.1371C185.428 13.8108 185.051 14.764 185.051 15.92H186.051C186.051 14.996 186.342 14.3492 186.873 13.9029L186.23 13.1371ZM185.051 15.92C185.051 17.076 185.428 18.0292 186.23 18.7029L186.873 17.9371C186.342 17.4908 186.051 16.844 186.051 15.92H185.051ZM186.23 18.7029C187.008 19.3563 188.011 19.66 189.191 19.66V18.66C188.185 18.66 187.428 18.4037 186.873 17.9371L186.23 18.7029ZM183.891 31.44C183.891 32.0125 184.024 32.5363 184.306 32.9929C184.588 33.4484 185.001 33.8082 185.517 34.0819L185.985 33.1981C185.596 32.9918 185.328 32.7449 185.157 32.4671C184.986 32.1903 184.891 31.8542 184.891 31.44H183.891ZM185.513 34.0794C186.536 34.6347 187.756 34.9 189.151 34.9V33.9C187.88 33.9 186.834 33.6586 185.99 33.2006L185.513 34.0794ZM189.151 34.9C190.498 34.9 191.643 34.6195 192.549 34.016L191.994 33.184C191.299 33.6471 190.365 33.9 189.151 33.9V34.9ZM192.539 34.0224C193.47 33.4324 193.971 32.5864 193.971 31.52H192.971C192.971 32.2136 192.672 32.7542 192.004 33.1776L192.539 34.0224ZM193.971 31.52C193.971 30.6588 193.645 29.9235 193.006 29.3484L192.337 30.0916C192.764 30.4765 192.971 30.9412 192.971 31.52H193.971ZM193.015 29.357C192.681 29.0401 192.212 28.8173 191.659 28.6592C191.101 28.4997 190.42 28.3959 189.626 28.3412L189.557 29.3388C190.31 29.3907 190.916 29.4869 191.384 29.6208C191.857 29.756 192.155 29.9199 192.328 30.083L193.015 29.357ZM189.628 28.3413C188.548 28.2623 187.551 28.1441 186.636 27.9872L186.467 28.9728C187.418 29.1359 188.448 29.2577 189.555 29.3387L189.628 28.3413ZM186.31 28.0422C185.496 28.4912 184.865 29.0045 184.459 29.5977L185.284 30.1623C185.572 29.7421 186.06 29.3221 186.793 28.9178L186.31 28.0422ZM184.449 29.613C184.085 30.1894 183.891 30.8008 183.891 31.44H184.891C184.891 31.0125 185.018 30.5839 185.294 30.147L184.449 29.613ZM207.125 28.64L206.923 29.0977L206.931 29.101L207.125 28.64ZM203.925 26.24L203.532 26.5498L203.532 26.5498L203.925 26.24ZM202.485 22.72V22.22H201.921L201.988 22.7796L202.485 22.72ZM207.645 22.72L208.134 22.6187L208.052 22.22H207.645V22.72ZM208.925 24.72L208.611 25.109L208.619 25.1155L208.627 25.1218L208.925 24.72ZM214.125 24.84L213.801 24.4589L213.791 24.4674L214.125 24.84ZM213.805 21.56L213.608 22.0196L213.615 22.0226L213.622 22.0254L213.805 21.56ZM210.685 20.64L210.792 20.1517L210.792 20.1515L210.685 20.64ZM208.085 19.96L207.94 20.4385L207.94 20.4385L208.085 19.96ZM205.645 18.96L205.39 19.3901L205.399 19.3956L205.409 19.4007L205.645 18.96ZM203.885 17.36L203.471 17.6412L203.477 17.649L203.885 17.36ZM205.285 10.48L204.961 10.0988L204.958 10.1019L205.285 10.48ZM216.805 10.32L216.495 10.7127L216.499 10.7155L216.805 10.32ZM219.325 14.84V15.34H219.899L219.82 14.7712L219.325 14.84ZM214.485 14.84L213.995 14.9381L214.075 15.34H214.485V14.84ZM208.925 13.2L208.638 12.7903L208.628 12.7975L208.925 13.2ZM212.405 16.96L212.517 16.4728L212.517 16.4726L212.405 16.96ZM216.205 18.04L216.04 18.5123L216.053 18.5165L216.205 18.04ZM219.005 19.76L218.633 20.0938L218.638 20.1002L219.005 19.76ZM220.045 23H219.545L219.545 23.0109L220.045 23ZM219.085 26.32L218.671 26.0401L218.671 26.0401L219.085 26.32ZM216.205 28.64L216.001 28.1835L216.001 28.1835L216.205 28.64ZM211.765 28.98C210.057 28.98 208.579 28.7083 207.318 28.179L206.931 29.101C208.338 29.6917 209.952 29.98 211.765 29.98V28.98ZM207.326 28.1823C206.058 27.6243 205.06 26.8715 204.317 25.9302L203.532 26.5498C204.389 27.6352 205.525 28.4823 206.923 29.0977L207.326 28.1823ZM204.317 25.9302C203.577 24.9921 203.131 23.9062 202.981 22.6604L201.988 22.7796C202.159 24.2005 202.673 25.4613 203.532 26.5498L204.317 25.9302ZM202.485 23.22H207.645V22.22H202.485V23.22ZM207.155 22.8213C207.342 23.7225 207.84 24.4862 208.611 25.109L209.239 24.331C208.623 23.8338 208.268 23.2642 208.134 22.6187L207.155 22.8213ZM208.627 25.1218C209.453 25.7334 210.485 26.02 211.685 26.02V25.02C210.645 25.02 209.837 24.7733 209.222 24.3182L208.627 25.1218ZM211.685 26.02C212.853 26.02 213.816 25.7868 214.458 25.2126L213.791 24.4674C213.42 24.7998 212.756 25.02 211.685 25.02V26.02ZM214.449 25.221C215.07 24.6928 215.425 24.0419 215.425 23.28H214.425C214.425 23.6914 214.246 24.0805 213.801 24.459L214.449 25.221ZM215.425 23.28C215.425 22.7804 215.315 22.323 215.064 21.9372C214.811 21.549 214.441 21.2726 213.988 21.0946L213.622 22.0254C213.916 22.1408 214.105 22.2977 214.226 22.4828C214.348 22.6703 214.425 22.9263 214.425 23.28H215.425ZM214.002 21.1004C213.213 20.7625 212.139 20.4479 210.792 20.1517L210.577 21.1283C211.898 21.4188 212.903 21.7175 213.608 22.0196L214.002 21.1004ZM210.792 20.1515C209.952 19.9678 209.098 19.7445 208.23 19.4815L207.94 20.4385C208.832 20.7088 209.711 20.9388 210.578 21.1284L210.792 20.1515ZM208.23 19.4815C207.379 19.2236 206.596 18.9024 205.881 18.5193L205.409 19.4007C206.187 19.8176 207.031 20.1631 207.94 20.4385L208.23 19.4815ZM205.9 18.5299C205.236 18.1365 204.703 17.6499 204.293 17.071L203.477 17.649C203.973 18.3501 204.614 18.9301 205.39 19.3901L205.9 18.5299ZM204.298 17.0788C203.911 16.5099 203.705 15.7992 203.705 14.92H202.705C202.705 15.9608 202.952 16.8768 203.471 17.6412L204.298 17.0788ZM203.705 14.92C203.705 13.3119 204.33 11.9677 205.612 10.8581L204.958 10.1019C203.466 11.3923 202.705 13.0081 202.705 14.92H203.705ZM205.608 10.8611C206.903 9.76195 208.747 9.18 211.205 9.18V8.18C208.596 8.18 206.493 8.79805 204.961 10.0989L205.608 10.8611ZM211.205 9.18C213.476 9.18 215.222 9.70871 216.495 10.7126L217.114 9.92737C215.614 8.74462 213.627 8.18 211.205 8.18V9.18ZM216.499 10.7155C217.8 11.7217 218.579 13.1062 218.83 14.9088L219.82 14.7712C219.537 12.7338 218.637 11.105 217.111 9.92452L216.499 10.7155ZM219.325 14.34H214.485V15.34H219.325V14.34ZM214.975 14.7419C214.806 13.8962 214.39 13.223 213.711 12.7732C213.047 12.3331 212.181 12.14 211.165 12.14V13.14C212.068 13.14 212.716 13.3136 213.159 13.6068C213.587 13.8904 213.87 14.3172 213.995 14.9381L214.975 14.7419ZM211.165 12.14C210.148 12.14 209.287 12.3363 208.638 12.7904L209.212 13.6096C209.63 13.317 210.261 13.14 211.165 13.14V12.14ZM208.628 12.7975C208.012 13.2516 207.665 13.8598 207.665 14.6H208.665C208.665 14.2202 208.824 13.8951 209.221 13.6025L208.628 12.7975ZM207.665 14.6C207.665 15.4682 208.26 16.0704 209.12 16.4563L209.529 15.5437C208.843 15.2362 208.665 14.9052 208.665 14.6H207.665ZM209.12 16.4563C209.935 16.8215 210.997 17.1502 212.293 17.4474L212.517 16.4726C211.253 16.1831 210.261 15.8718 209.529 15.5437L209.12 16.4563ZM212.292 17.4472C213.664 17.7638 214.913 18.119 216.04 18.5121L216.37 17.5679C215.203 17.161 213.919 16.7962 212.517 16.4728L212.292 17.4472ZM216.053 18.5165C217.157 18.8678 218.009 19.3982 218.633 20.0938L219.377 19.4262C218.614 18.5751 217.599 17.9589 216.356 17.5635L216.053 18.5165ZM218.638 20.1002C219.217 20.7238 219.545 21.6637 219.545 23H220.545C220.545 21.5097 220.179 20.2896 219.371 19.4198L218.638 20.1002ZM219.545 23.0109C219.569 24.1374 219.277 25.1419 218.671 26.0401L219.499 26.5999C220.226 25.5248 220.574 24.3159 220.545 22.9891L219.545 23.0109ZM218.671 26.0401C218.064 26.9382 217.182 27.6556 216.001 28.1835L216.409 29.0965C217.734 28.5044 218.773 27.6752 219.499 26.5999L218.671 26.0401ZM216.001 28.1835C214.825 28.7087 213.418 28.98 211.765 28.98V29.98C213.525 29.98 215.078 29.6913 216.409 29.0965L216.001 28.1835ZM224.7 29H224.2V29.5H224.7V29ZM224.7 0.999998V0.499998H224.2V0.999998H224.7ZM242.34 2.76L242.097 3.19687L242.104 3.20041L242.34 2.76ZM247.06 7.64L246.61 7.85676L246.613 7.86361L247.06 7.64ZM247.06 22.4L246.612 22.1787L246.611 22.181L247.06 22.4ZM242.34 27.28L242.58 27.7192L242.581 27.7181L242.34 27.28ZM229.82 24.6H229.32V25.1H229.82V24.6ZM239.58 23.48L239.821 23.9183L239.828 23.9146L239.58 23.48ZM242.5 20.2L242.962 20.3917L242.964 20.3886L242.5 20.2ZM242.5 9.84L242.037 10.0286L242.037 10.0286L242.5 9.84ZM229.82 5.36V4.86H229.32V5.36H229.82ZM225.2 29V0.999998H224.2V29H225.2ZM224.7 1.5H234.26V0.499998H224.7V1.5ZM234.26 1.5C237.485 1.5 240.087 2.07718 242.097 3.19682L242.584 2.32318C240.381 1.09615 237.596 0.499998 234.26 0.499998V1.5ZM242.104 3.20041C244.148 4.29894 245.644 5.84897 246.61 7.85673L247.511 7.42326C246.45 5.21769 244.8 3.51439 242.577 2.31959L242.104 3.20041ZM246.613 7.86361C247.612 9.8608 248.12 12.2345 248.12 15H249.12C249.12 12.1122 248.589 9.5792 247.508 7.41639L246.613 7.86361ZM248.12 15C248.12 17.7653 247.612 20.1534 246.612 22.1787L247.509 22.6213C248.589 20.4332 249.12 17.888 249.12 15H248.12ZM246.611 22.181C245.645 24.1632 244.147 25.7156 242.1 26.8419L242.581 27.7181C244.8 26.4978 246.449 24.7968 247.51 22.619L246.611 22.181ZM242.101 26.8408C240.09 27.9356 237.486 28.5 234.26 28.5V29.5C237.595 29.5 240.377 28.9177 242.58 27.7192L242.101 26.8408ZM234.26 28.5H224.7V29.5H234.26V28.5ZM229.82 25.1H234.02V24.1H229.82V25.1ZM234.02 25.1C236.412 25.1 238.359 24.721 239.821 23.9183L239.34 23.0417C238.082 23.7324 236.323 24.1 234.02 24.1V25.1ZM239.828 23.9146C241.282 23.0877 242.332 21.9101 242.962 20.3917L242.039 20.0083C241.496 21.3166 240.599 22.3256 239.333 23.0454L239.828 23.9146ZM242.964 20.3886C243.581 18.8736 243.88 17.0727 243.88 15H242.88C242.88 16.9807 242.594 18.6464 242.037 20.0114L242.964 20.3886ZM243.88 15C243.88 12.953 243.58 11.1657 242.964 9.65135L242.037 10.0286C242.594 11.3943 242.88 13.047 242.88 15H243.88ZM242.964 9.65135C242.334 8.10676 241.284 6.91377 239.828 6.08535L239.333 6.95464C240.596 7.67289 241.493 8.69324 242.037 10.0286L242.964 9.65135ZM239.828 6.08535C238.364 5.25298 236.414 4.86 234.02 4.86V5.86C236.321 5.86 238.077 6.24035 239.333 6.95464L239.828 6.08535ZM234.02 4.86H229.82V5.86H234.02V4.86ZM229.32 5.36V24.6H230.32V5.36H229.32ZM258.138 26.28L258.551 25.9977L257.886 25.0258L257.648 26.1792L258.138 26.28ZM257.578 29V29.5H257.986L258.068 29.1008L257.578 29ZM253.018 29H252.518V29.5H253.018V29ZM253.018 0.199999V-0.300001H252.518V0.199999H253.018ZM258.138 0.199999H258.638V-0.300001H258.138V0.199999ZM258.138 12H257.638V13.5376L258.542 12.2941L258.138 12ZM260.658 9.68L260.393 9.25597L260.388 9.25906L260.658 9.68ZM269.778 10.04L270.041 9.6147L270.041 9.6147L269.778 10.04ZM273.258 13.76L272.818 13.9984L272.818 13.9984L273.258 13.76ZM273.258 24.48L273.696 24.7215L273.697 24.7184L273.258 24.48ZM269.778 28.16L270.035 28.5888L270.041 28.5853L269.778 28.16ZM267.738 23.36L268.096 23.7092L268.096 23.7092L267.738 23.36ZM267.738 14.84L268.1 14.4952L268.1 14.4952L267.738 14.84ZM259.618 14.84L259.256 14.4952L259.256 14.4954L259.618 14.84ZM259.618 23.36L259.251 23.7003L259.26 23.7092L259.618 23.36ZM264.778 28.98C263.347 28.98 262.12 28.712 261.082 28.1928L260.634 29.0872C261.836 29.688 263.222 29.98 264.778 29.98V28.98ZM261.082 28.1928C260.036 27.67 259.195 26.9394 258.551 25.9977L257.725 26.5623C258.468 27.6472 259.44 28.49 260.634 29.0872L261.082 28.1928ZM257.648 26.1792L257.088 28.8992L258.068 29.1008L258.628 26.3808L257.648 26.1792ZM257.578 28.5H253.018V29.5H257.578V28.5ZM253.518 29V0.199999H252.518V29H253.518ZM253.018 0.699999H258.138V-0.300001H253.018V0.699999ZM257.638 0.199999V12H258.638V0.199999H257.638ZM258.542 12.2941C259.141 11.4707 259.933 10.7386 260.928 10.1009L260.388 9.25906C259.303 9.95478 258.415 10.7693 257.734 11.7059L258.542 12.2941ZM260.923 10.104C261.888 9.50105 263.161 9.18 264.778 9.18V8.18C263.035 8.18 261.562 8.52562 260.393 9.256L260.923 10.104ZM264.778 9.18C266.56 9.18 268.134 9.61149 269.515 10.4653L270.041 9.6147C268.489 8.65518 266.73 8.18 264.778 8.18V9.18ZM269.515 10.4653C270.905 11.3243 272.005 12.4986 272.818 13.9984L273.697 13.5216C272.804 11.8747 271.585 10.569 270.041 9.6147L269.515 10.4653ZM272.818 13.9984C273.628 15.4903 274.038 17.1933 274.038 19.12H275.038C275.038 17.0467 274.595 15.1764 273.697 13.5216L272.818 13.9984ZM274.038 19.12C274.038 21.0467 273.628 22.7497 272.818 24.2416L273.697 24.7184C274.595 23.0636 275.038 21.1933 275.038 19.12H274.038ZM272.82 24.2385C272.007 25.7118 270.907 26.8744 269.515 27.7347L270.041 28.5853C271.583 27.6323 272.802 26.3415 273.696 24.7215L272.82 24.2385ZM269.521 27.7313C268.139 28.5604 266.563 28.98 264.778 28.98V29.98C266.727 29.98 268.484 29.5196 270.035 28.5887L269.521 27.7313ZM263.698 25.5C265.45 25.5 266.929 24.9057 268.096 23.7092L267.38 23.0108C266.414 24.001 265.2 24.5 263.698 24.5V25.5ZM268.096 23.7092C269.266 22.5096 269.838 20.9647 269.838 19.12H268.838C268.838 20.7419 268.343 22.0237 267.38 23.0108L268.096 23.7092ZM269.838 19.12C269.838 17.2751 269.266 15.7196 268.1 14.4952L267.376 15.1848C268.343 16.2004 268.838 17.4982 268.838 19.12H269.838ZM268.1 14.4952C266.934 13.2705 265.454 12.66 263.698 12.66V13.66C265.196 13.66 266.409 14.1695 267.376 15.1848L268.1 14.4952ZM263.698 12.66C261.918 12.66 260.424 13.2687 259.256 14.4952L259.98 15.1848C260.945 14.1713 262.171 13.66 263.698 13.66V12.66ZM259.256 14.4954C258.114 15.6956 257.558 17.2389 257.558 19.08H258.558C258.558 17.4544 259.042 16.1711 259.98 15.1846L259.256 14.4954ZM257.558 19.08C257.558 20.9213 258.114 22.4752 259.252 23.7002L259.984 23.0198C259.042 22.0048 258.558 20.7053 258.558 19.08H257.558ZM259.26 23.7092C260.429 24.9074 261.922 25.5 263.698 25.5V24.5C262.167 24.5 260.94 23.9993 259.976 23.0108L259.26 23.7092Z" fill="#FAAD00"/>
</svg>
